<svg width="43" height="36" viewBox="0 0 43 36" fill="none" xmlns="http://www.w3.org/2000/svg">
<path fill-rule="evenodd" clip-rule="evenodd" d="M21.8524 32.7915C21.8524 35.4594 25.0738 36.8 26.9666 34.9199L41.8573 20.1284C43.0384 18.9552 43.0384 17.0448 41.8573 15.8716L26.9666 1.08012C25.0738 -0.800035 21.8524 0.54065 21.8524 3.20853L21.8524 15.3039C21.8524 16.1932 20.7786 16.64 20.1476 16.0133L5.11422 1.08012C3.22144 -0.800035 1.72482e-06 0.540643 1.60821e-06 3.20852L3.15095e-07 32.7915C1.98478e-07 35.4594 3.22144 36.8 5.11422 34.9199L20.1476 19.9866C20.7786 19.3599 21.8524 19.8068 21.8524 20.6961V32.7915Z" fill="#88D393"/>
</svg>
