<svg width="44" height="43" viewBox="0 0 44 43" fill="none" xmlns="http://www.w3.org/2000/svg">
<path fill-rule="evenodd" clip-rule="evenodd" d="M7.04 21.1409C7.04 15.071 10.609 9.84014 15.7502 7.45775C17.292 6.7433 18.48 5.30764 18.48 3.60834C18.48 1.33967 16.4285 -0.406018 14.3048 0.39206C5.94962 3.53197 0 11.6371 0 21.1409C0 30.6445 5.94962 38.7497 14.3048 41.8896C16.4285 42.6876 18.48 40.9419 18.48 38.6733C18.48 36.974 17.292 35.5383 15.7502 34.8238C10.609 32.4415 7.04 27.2106 7.04 21.1409ZM44 21.1409C44 30.6445 38.0504 38.7497 29.6952 41.8896C27.5715 42.6876 25.52 40.9419 25.52 38.6733C25.52 36.974 26.708 35.5383 28.2498 34.8238C33.391 32.4415 36.96 27.2106 36.96 21.1409C36.96 15.071 33.391 9.84013 28.2498 7.45775C26.708 6.74329 25.52 5.30764 25.52 3.60834C25.52 1.33967 27.5715 -0.40602 29.6952 0.392055C38.0504 3.53196 44 11.6371 44 21.1409Z" fill="#88BED3"/>
</svg>
